# xmcd
#
# Track frame offsets:
#	150
#	35019
#	117236
#	197254
#	266687
#	310858
#
# Disc length: 4711 seconds
#
# Revision: 0
# Processed by: cddbd v1.5.1PL0 Copyright (c) Steve Scherf et al.
# Submitted via: EasyCDDAExtractor 7.1.2.1
#
DISCID=4b126506
DTITLE=Deep Purple - 2000.10.01 - Concerto Hamburg - CD 2
DYEAR=2000
DGENRE=Hard Rock
TTITLE0=Sometimes I Feel Like Screaming
TTITLE1=Concerto - First Movement
TTITLE2=Concerto - Second Movement
TTITLE3=Concerto - Third Movement
TTITLE4=Perfect Strangers
TTITLE5=Smoke On The Water
EXTD=
EXTT0=
EXTT1=
EXTT2=
EXTT3=
EXTT4=
EXTT5=
PLAYORDER=
